<svg xmlns="http://www.w3.org/2000/svg" viewBox="0 0 120 120" role="img" aria-label="Marca do repertorio">
  <rect width="120" height="120" rx="24" fill="#216e5f"/>
  <path d="M33 78c0-8 7-14 16-14 4 0 8 1 11 3V25l34-8v46c0 8-7 14-16 14s-16-6-16-14 7-14 16-14c3 0 6 1 9 2V30l-20 5v51c0 8-7 14-16 14S33 94 33 86s7-14 16-14c4 0 8 1 11 3v-1c-3-2-7-3-11-3-9 0-16 3-16 7z" fill="#fffdf7"/>
  <path d="M27 31h34" stroke="#c7902f" stroke-width="6" stroke-linecap="round"/>
  <path d="M27 46h25" stroke="#f0d9a4" stroke-width="6" stroke-linecap="round"/>
</svg>
